{"title":"Twilight Breaking Dawn Part 1 2011 TS XViD READNFO v2 - U.S.M.[M","uid":6852712,"size":1498846454,"categoryP":"video","categoryS":"movies","magnet":"?xt=urn:btih:65aab449b011690697e0b6bcee32ab7ecee1329f&amp;dn=Twilight+Breaking+Dawn+Part+1+2011+TS+XViD+READNFO+v2+-+U.S.M.%5BM&amp;tr=udp%3A%2F%2Ftracker.openbittorrent.com%3A80&amp;tr=udp%3A%2F%2Fopen.demonii.com%3A1337&amp;tr=udp%3A%2F%2Ftracker.coppersurfer.tk%3A6969&amp;tr=udp%3A%2F%2Fexodus.desync.com%3A6969","seeders":0,"leechers":0,"uploader":"moviesp2p","files":103,"time":1322584662,"description":"   Twilight Breaking Dawn Part 1 2011 TS XViD READNFO v2 - U.S.M\n\n\nSOURCES:\n\nTNZ 720p\nFYA\nsubs ...myself\n\nIMDB:\n\nwww.imdb.com/title/tt1324999/\n\nVideo\nID                               : 0\nFormat                           : MPEG-4 Visual\nFormat profile                   : Advanced Simple@L5\nFormat settings, BVOP            : 2\nFormat settings, QPel            : No\nFormat settings, GMC             : No warppoints\nFormat settings, Matrix          : Default (H.263)\nMuxing mode                      : Packed bitstream\nCodec ID                         : XVID\nCodec ID/Hint                    : XviD\nDuration                         : 1h 46mn\nBit rate                         : 1 714 Kbps\nWidth                            : 720 pixels\nHeight                           : 304 pixels\nDisplay aspect ratio             : 2.35:1\nFrame rate                       : 25.000 fps\nColor space                      : YUV\nChroma subsampling               : 4:2:0\nBit depth                        : 8 bits\nScan type                        : Progressive\nCompression mode                 : Lossy\nBits/(Pixel*Frame)               : 0.313\nStream size                      : 1.28 GiB (93%)\nWriting library                  : XviD 64\n\nAudio\nID                               : 1\nFormat                           : MPEG Audio\nFormat version                   : Version 1\nFormat profile                   : Layer 3\nCodec ID                         : 55\nCodec ID/Hint                    : MP3\nDuration                         : 1h 46mn\nBit rate mode                    : Constant\nBit rate                         : 128 Kbps\nChannel(s)                       : 2 channels\nSampling rate                    : 44.1 KHz\nCompression mode                 : Lossy\nStream size                      : 97.9 MiB (7%)\nAlignment                        : Split accross interleaves\nInterleave, duration             : 40 ms (1.00 video frame)\nInterleave, preload duration     : 500 ms\nWriting library                  : LAME3.98.4Ã‚ÂªÃ‚ÂªÃ‚ÂªÃ‚ÂªÃ‚ÂªÃ‚ÂªÃ‚Âª\u0001\u001fÃƒÂ°\n\n\nWORKDONE:\n\nRight ...late with this one,but only got one part of hands so ....Anyways for this we used the 720p video,but to be honest\ndid think it was that great ...good,but nothing special and my reason is it contained shitloads of noise and i mean loads.\nSo made a script in megui and inc heavy noise reduction and after dropping that into vdub and resizing ....still wasn't happy.\nSo also used the HQ smoother aswell ( place before the resize,for better results ),then i also tweaked the contrast and brightness,lowered\nthe chroma and slight tweak on the rgb colours aswell before adding some sharpness back.\nNow also on the tnz video the subs are not in english ...so scrolled through my v1 and made a note of all the subs,14 or 15 lines and made\nmy own srt pack and altered times to match this video,then hardcoded them.\nAudio was already synced and sounded nice,but opted to use a liss hiss removal and also messed with the EQ,all done in goldwave and then finally\nremuxed it to our encode.\n\nCheck sample for Q.\n\nSCREENIES:\n\n[IMG]http://i.imgur.com/jyecH.png[/IMG]\n[IMG]http://i.imgur.com/uleXM.png[/IMG]\n[IMG]http://i.imgur.com/C1osx.png[/IMG]\n[IMG]http://i.imgur.com/YBE5V.png[/IMG]\n[IMG]http://i.imgur.com/8UGYV.png[/IMG]\n[IMG]http://i.imgur.com/7SIPz.png[/IMG]\n[IMG]http://i.imgur.com/rKR5N.png[/IMG]","torrent":{"xt":"urn:btih:65aab449b011690697e0b6bcee32ab7ecee1329f","amp;dn":"Twilight+Breaking+Dawn+Part+1+2011+TS+XViD+READNFO+v2+-+U.S.M.%5BM","amp;tr":["udp%3A%2F%2Ftracker.openbittorrent.com%3A80","udp%3A%2F%2Fopen.demonii.com%3A1337","udp%3A%2F%2Ftracker.coppersurfer.tk%3A6969","udp%3A%2F%2Fexodus.desync.com%3A6969"],"infoHash":"65aab449b011690697e0b6bcee32ab7ecee1329f","infoHashBuffer":{"type":"Buffer","data":[101,170,180,73,176,17,105,6,151,224,182,188,238,50,171,126,206,225,50,159]},"announce":[],"urlList":[]}}